<?xml version="1.0" encoding="UTF-8" ?>
<svg t="1756536111503" class="icon" viewBox="0 0 1024 1024" version="1.1" xmlns="http://www.w3.org/2000/svg"
     p-id="14917" width="200" height="200">
    <path
        d="M476.735682 919.954468c-30.016955 0-59.71805-12.481592-81.486966-34.250508l-95.919761-100.031045h-124.571383c-62.693254 0-113.694567-51.006408-113.694567-113.699661V418.260697c0-62.698348 51.006408-113.704756 113.694567-113.704757h123.557572l95.608995-99.710089c21.305313-22.023642 51.276418-34.622408 82.291901-34.622408 14.402229 0 28.422368 2.649154 41.663045 7.876139 43.639721 17.988776 71.654527 59.555025 71.654527 106.01202v522.280756c0 46.4519-28.014806 88.018149-71.369234 105.889751a114.637055 114.637055 0 0 1-41.428696 7.672359z"
        fill="#68CAFE" p-id="14918"></path>
    <path
        d="M517.884179 179.31208a112.996617 112.996617 0 0 0-41.663045-7.87614c-31.015483 0-60.991682 12.598766-82.2919 34.622408l-95.608995 99.71009h-123.557572c-62.693254 0-113.694567 51.011502-113.694567 113.704756v198.681473l528.475701-212.319523v-120.516139c-0.005095-46.446806-28.0199-88.013055-71.659622-106.006925z"
        fill="#FEDD5D" p-id="14919"></path>
    <path
        d="M476.21604 190.601552a93.005692 93.005692 0 0 1 34.184278 6.454766c35.712637 14.728279 58.755184 48.270647 58.755184 87.055284v522.280756c0 38.784637-23.042547 72.327005-58.755184 87.050189-10.499821 4.090905-22.14591 6.138905-33.664636 6.138906-25.21791 0-49.284458-10.494726-67.079642-28.284816l-98.568916-102.797373c-2.048-2.048-4.223363-3.199363-6.271363-3.199364h-130.058189c-51.332458 0-93.316458-41.984-93.316458-93.321552v-253.712557c0-51.332458 41.989095-93.326647 93.316458-93.326647h129.039284c2.042905 0 5.247363-1.013811 6.271363-3.189174l98.568915-102.797373c17.917453-18.533891 42.651383-28.351045 67.578906-28.351045m0.005094-40.756219c-36.512478 0-71.827741 14.860736-96.882627 40.771503l-89.714626 93.560995h-114.866309c-73.931781 0-134.072677 60.151085-134.072676 134.082866v253.712557c0 73.931781 60.14599 134.077771 134.072676 134.077771h115.88012l89.602547 93.448915 0.601154 0.611344c25.564338 25.559244 60.512796 40.221294 95.894289 40.221293 16.725333 0 33.486328-3.082189 48.464238-8.920517l0.738707-0.295483c51.016597-21.030209 83.978189-69.988617 83.978189-124.729313V284.111602c0-54.735602-32.961592-103.69401-83.973095-124.729313a133.267741 133.267741 0 0 0-49.722587-9.536956z"
        fill="#000000" p-id="14920"></path>
    <path
        d="M707.059264 688.795383c-14.244299 0-27.836498-5.751721-38.275184-16.195502-10.443781-10.438687-16.205692-24.199005-16.205692-38.733692 0-14.529592 5.756816-28.28991 16.210786-38.738786a69.621811 69.621811 0 0 0 20.490189-49.564657c0-19.445811-7.453294-37.261373-20.984358-50.160716-10.403025-9.771303-16.317771-23.266706-16.547025-37.908378a55.530348 55.530348 0 0 1 15.976438-39.686368c9.934328-10.448876 23.995224-16.429851 38.647084-16.429851 14.733373 0 28.600677 5.751721 39.049553 16.200597 34.11805 33.190846 53.798209 79.912756 53.798209 127.984716 0 48.815761-18.890507 94.009313-53.181771 127.266388-0.239443 0.229254-0.48398 0.458507-0.738707 0.677572-11.370985 10.000557-24.596378 15.288677-38.239522 15.288677z"
        fill="#68CAFE" p-id="14921"></path>
    <path
        d="M747.474149 418.566368a54.873154 54.873154 0 0 0-39.049552-16.200597c-14.646766 0-28.712756 5.980975-38.647085 16.429851a55.50997 55.50997 0 0 0-15.976437 39.681274 53.528199 53.528199 0 0 0 6.24589 24.367124l106.480717-42.279483a174.874746 174.874746 0 0 0-19.053533-21.998169z"
        fill="#FEDD5D" p-id="14922"></path>
    <path
        d="M706.381692 421.755542c8.854289 0 17.815562 3.408239 24.642228 10.234906 30.740378 29.904876 47.827423 70.854687 47.827423 113.572298 0 42.722706-16.256637 82.837015-46.99192 112.634906-7.713114 6.775721-16.256637 10.219622-24.800159 10.219622s-17.087045-3.4439-23.857672-10.219622c-13.653333-13.648239-13.653333-35.004498 0-48.657831a90.376915 90.376915 0 0 0 26.460975-63.982169c0-24.78997-9.379025-47.827423-27.296477-64.909373-13.653333-12.822925-13.653333-35.009592 0-48.662926 6.408915-6.821572 15.156219-10.229811 24.015602-10.229811m0-40.756219c-20.148856 0-39.528438 8.237851-53.283662 22.624796a76.020537 76.020537 0 0 0-21.71797 54.185393c0.315861 20.138667 8.46201 38.743881 22.945751 52.417592 9.54205 9.139582 14.580537 21.351164 14.580537 35.335642a49.391443 49.391443 0 0 1-14.529592 35.162428c-14.295244 14.295244-22.176478 33.170468-22.176477 53.14611 0 19.980736 7.881234 38.85596 22.186666 53.156298 14.264677 14.27996 32.976876 22.151005 52.667224 22.151005 18.666348 0 36.543045-7.040637 51.704358-20.357731 0.499264-0.443224 0.988338-0.896637 1.467224-1.360239 38.290468-37.123821 59.376716-87.518886 59.376717-141.897871 0-53.46197-21.860617-105.426149-59.98806-142.611104a75.07805 75.07805 0 0 0-53.232716-21.952319z"
        fill="#000000" p-id="14923"></path>
    <path
        d="M844.657353 794.608716c-14.234109 0-27.821214-5.741532-38.2599-16.170029-21.733254-21.743443-21.733254-55.774886-0.010189-77.492856 41.301333-41.301333 64.053493-96.500537 64.053492-155.43403 0-59.147463-23.292179-114.601393-65.59204-156.126886-10.18396-9.557333-16.098706-23.057831-16.333054-37.694408a55.530348 55.530348 0 0 1 16.195502-39.910527c10.45397-10.45397 24.214289-16.210786 38.743881-16.210786 14.534687 0 28.28991 5.756816 38.738786 16.210786 63.27403 62.382488 98.181731 145.428378 98.181731 233.736916 0 87.488318-34.240318 169.912677-96.41393 232.076099-11.299662 11.162109-24.861294 17.015721-39.304279 17.015721z"
        fill="#68CAFE" p-id="14924"></path>
    <path
        d="M884.241831 312.768318c-10.448876-10.459065-24.209194-16.210786-38.738786-16.210786-14.529592 0-28.28991 5.751721-38.743881 16.210786a55.489592 55.489592 0 0 0-16.195502 39.910528c0.229254 14.636577 6.149095 28.137075 16.333054 37.689313a222.875383 222.875383 0 0 1 22.186667 25.365652l104.34611-41.433791a333.131144 333.131144 0 0 0-49.187662-61.531702z"
        fill="#FEDD5D" p-id="14925"></path>
    <path
        d="M843.460139 315.947303c8.752398 0 17.504796 3.413333 24.326368 10.24 58.872358 58.04195 92.21604 136.599562 92.21604 219.329593 0 81.904716-32.406289 159.63192-90.443144 217.668776-7.815005 7.718209-16.358527 11.05003-24.90205 11.050029-8.548617 0-17.087045-3.4439-23.862766-10.209432-13.648239-13.658428-13.648239-35.014687 0-48.662926 45.219025-45.219025 70.024279-105.864279 70.024279-169.846447 0-64.909373-25.635662-125.447642-71.690189-170.671762-13.648239-12.817831-13.648239-35.009592 0-48.657831 6.821572-6.826667 15.579065-10.24 24.331462-10.24m0-40.756218c-19.970547 0-38.845771 7.876139-53.151204 22.176477a76.010348 76.010348 0 0 0-22.166288 54.643901c0.315861 20.016398 8.360119 38.519721 22.675741 52.157771 38.208955 37.643463 59.244259 87.824557 59.244259 141.347662 0 53.487443-20.627741 103.571741-58.082707 141.026706-29.797891 29.792796-29.802985 76.484139-0.010189 106.292219 14.320716 14.300338 33.022726 22.1561 52.692697 22.156099 19.914507 0 38.422925-7.886328 53.533293-22.803104l0.183403-0.183403c66.01998-66.01998 102.384716-153.559244 102.384717-246.488517 0-93.759682-37.02193-181.915383-104.254408-248.251224-14.290149-14.239204-33.119522-22.074587-53.049314-22.074587z"
        fill="#000000" p-id="14926"></path>
    <path
        d="M128.988338 447.742726h-0.203781a20.291502 20.291502 0 0 1-20.179423-20.271124c0-28.99805 19.445811-72.143602 73.019861-72.143602h100.19407a20.378109 20.378109 0 0 1 0 40.756219h-100.19407c-28.554826 0-32.075144 22.084776-32.263642 31.575881-0.219065 11.10607-9.287323 20.082627-20.373015 20.082626z"
        fill="#F5F5F5" p-id="14927"></path>
</svg>
