<?xml version="1.0" standalone="no"?><!DOCTYPE svg PUBLIC "-//W3C//DTD SVG 1.1//EN" "http://www.w3.org/Graphics/SVG/1.1/DTD/svg11.dtd"><svg t="1757402417490" class="icon" viewBox="0 0 1024 1024" version="1.1" xmlns="http://www.w3.org/2000/svg" p-id="1251" xmlns:xlink="http://www.w3.org/1999/xlink" width="200" height="200"><path d="M468.4625 122.16875c24.075-24.009375 67.265625-18.05625 91.275 5.953125l47.625 71.7H797.84375c33.928125 0.065625 23.8125 61.575 23.8125 95.64375v95.634375l77.38125 75.928125c23.94375 24.178125 23.94375 63.13125 0 87.309375l-77.38125 75.928125v119.5875c-0.065625 34.059375-37.434375 71.634375-71.4375 71.765625H631.034375l-75.6 77.521875c-24.01875 24.009375-62.953125 24.009375-86.971875 0l-75.6-77.521875H249.996875c-33.99375-0.13125-49.340625-25.865625-49.40625-59.925V636.415625l-75.665625-82.14375c-23.896875-24.16875-23.896875-63.065625 0-87.24375l75.665625-80.953125V260.796875c0.065625-34.059375 39.225-60.7875 73.21875-60.91875h143.0625l51.590625-77.709375z m-5.934375 368.221875L348.4625 712.334375c5.053125 24.65625 19.659375 35.390625 42.76875 33.8625l170.953125-174.6375c-38.86875-14.6625-76.003125-45.290625-99.65625-81.16875z m12.440625-138.13125a149.3596875 149.3596875 0 0 0-3.815625 113.55c24.328125 42.103125 71.690625 80.390625 117.253125 90.684375a127.783125 127.783125 0 0 0 101.015625-40.096875c-42.675-4.490625-89.540625-27.890625-129.4125-60.178125-36.290625-29.353125-67.48125-66.590625-85.040625-103.959375z m181.81875-26.325c-50.390625-39.95625-118.18125-36.909375-164.175 3.1875 1.040625 4.55625 2.390625 9.0375 4.021875 13.415625 12.3 33.459375 40.809375 68.746875 75.215625 96.5625 34.321875 27.796875 73.678125 47.578125 107.671875 50.08125 8.1 0.69375 16.25625 0.121875 24.1875-1.6875 18.91875-57.028125 1.528125-123.20625-46.921875-161.559375z" fill="#FF902E" p-id="1252"></path></svg>
