<?xml version="1.0" standalone="no"?><!DOCTYPE svg PUBLIC "-//W3C//DTD SVG 1.1//EN" "http://www.w3.org/Graphics/SVG/1.1/DTD/svg11.dtd"><svg t="1758174046503" class="icon" viewBox="0 0 1024 1024" version="1.1" xmlns="http://www.w3.org/2000/svg" p-id="2264" xmlns:xlink="http://www.w3.org/1999/xlink" width="200" height="200"><path d="M552.98167187 168.09000572a31.26613333 31.26613333 0 1 0 0 62.57777815h255.86346665a10.4675552 10.4675552 0 0 1 10.46755627 10.4220448v584.04408852a10.4675552 10.4675552 0 0 1-10.46755627 10.4675552H224.80104999a10.4675552 10.4675552 0 0 1-10.4675552-10.4675552v-332.73173332a31.26613333 31.26613333 0 1 0-62.57777813 0v332.73173332c0 40.3228448 32.72248853 72.99982187 73.04533333 72.99982188H808.84513852c40.3228448 0 72.99982187-32.67697813 72.99982294-72.99982188V241.08982867c0-40.3228448-32.67697813-72.99982187-72.99982294-72.99982295h-255.86346665z" fill="#34a4df" p-id="2265"></path><path d="M540.69231737 484.02136719a29.312 29.312 0 0 1 48.64-1.28l146.645334 205.95199999a29.354667 29.354667 0 0 1-23.893334 46.378667H320.95898438a29.312 29.312 0 0 1-23.46666701-46.93333398l117.333334-157.01333302a29.354667 29.354667 0 0 1 44.202666-3.19999999l32.853334 32.81066699 48.76799999-76.71466699z m26.06933399 68.26666699l-45.05599998 70.826666a29.312 29.312 0 0 1-45.482667 4.99200001l-34.73066701-34.73066601-62.037333 83.02933301h275.712l-88.405333-124.16zM382.48431737 235.0613672a256.512 256.512 0 0 1-47.786666 83.62666699A280.192 280.192 0 0 1 280.42565138 235.0613672h102.05866599z m107.52 0V186.63470018h-143.36L374.29231737 178.10136718c-3.413333-14.336-12.970667-35.84-21.50399999-51.88266699l-53.24800001 15.701334c6.485333 13.653333 12.629333 31.061333 16.042667 44.71466599H174.95365137v48.469334h53.93066598c17.749333 46.08 39.594667 85.333333 67.92533401 118.101333-34.474667 25.258667-77.141333 43.008-129.36533399 54.61333301 9.557333 11.605333 24.576 34.816 30.037334 46.76266699 53.930667-15.018667 98.986667-36.522667 136.192-65.877333 35.157333 28.330667 77.824 49.493333 130.38933299 63.14666601 7.509333-13.653333 22.186667-35.498667 33.45066702-46.42133301-49.493333-10.922667-90.794667-29.013333-124.92800001-53.589333 27.989333-31.744 49.834667-70.314667 65.877333-116.736h51.54133298z" fill="#34a4df" p-id="2266"></path></svg>
