<?xml version="1.0" standalone="no"?><!DOCTYPE svg PUBLIC "-//W3C//DTD SVG 1.1//EN" "http://www.w3.org/Graphics/SVG/1.1/DTD/svg11.dtd"><svg t="1757403884948" class="icon" viewBox="0 0 1024 1024" version="1.1" xmlns="http://www.w3.org/2000/svg" p-id="1481" xmlns:xlink="http://www.w3.org/1999/xlink" width="200" height="200"><path d="M376.04418945 437.84228516c-7.41577148 0-12.35961914-4.94384766-12.35961914-12.35961914v-49.43847657c0-7.41577148 4.94384766-12.35961914 12.35961914-12.35961914h271.9116211c7.41577148 0 12.35961914 4.94384766 12.35961914 12.35961914v49.43847657c0 7.41577148-4.94384766 12.35961914-12.35961914 12.35961914h-98.87695313v234.83276367c0 7.41577148-4.94384766 12.35961914-12.35961914 12.35961914h-49.43847656c-7.41577148 0-12.35961914-4.94384766-12.35961914-12.35961914V437.84228516h-98.87695313z" fill="#4f68b0" p-id="1482"></path><path d="M561.43847656 808.63085938H190.64990234c-13.59558106 0-24.71923828-11.12365723-24.71923828-24.71923829V264.80761719c0-13.59558106 11.12365723-24.71923828 24.71923828-24.71923828h642.70019532c13.59558106 0 24.71923828 11.12365723 24.71923828 24.71923828v259.55200195c0 13.59558106-11.12365723 24.71923828-24.71923828 24.71923828s-24.71923828-11.12365723-24.71923828-24.71923828V289.52685547H215.36914062v469.66552734h346.06933594c13.59558106 0 24.71923828 11.12365723 24.71923828 24.71923828s-11.12365723 24.71923828-24.71923828 24.71923829z" fill="#4f68b0" p-id="1483"></path><path d="M860.54125977 710.98986817H656.60754395c-13.59558106 0-24.71923828-11.12365723-24.71923829-24.71923829s11.12365723-24.71923828 24.71923828-24.71923828h153.25927735l-16.06750488-21.01135254c-8.6517334-11.12365723-6.17980958-25.9552002 4.94384765-34.60693359 11.12365723-8.6517334 25.9552002-6.17980958 34.6069336 4.94384766l46.96655273 60.56213379c6.17980958 7.41577148 6.17980958 17.3034668 2.47192383 25.95520019-3.70788575 8.6517334-12.35961914 13.59558106-22.24731445 13.59558105zM703.57409668 843.23779297c-7.41577148 0-14.83154297-3.70788575-19.77539063-9.88769531l-46.96655273-60.5621338c-6.17980958-7.41577148-6.17980958-17.3034668-2.47192383-25.95520019 3.70788575-8.6517334 12.35961914-13.59558106 22.24731445-13.59558105h203.93371583c13.59558106 0 24.71923828 11.12365723 24.71923828 24.71923828s-11.12365723 24.71923828-24.71923828 24.71923828H707.28198242l16.06750489 21.01135254c8.6517334 11.12365723 6.17980958 25.9552002-4.94384767 34.60693359-3.70788575 2.47192383-9.88769531 4.94384766-14.83154296 4.94384766z" fill="#4f68b0" p-id="1484"></path></svg>
