<?xml version="1.0" standalone="no"?><!DOCTYPE svg PUBLIC "-//W3C//DTD SVG 1.1//EN" "http://www.w3.org/Graphics/SVG/1.1/DTD/svg11.dtd"><svg t="1756380349896" class="icon" viewBox="0 0 1024 1024" version="1.1" xmlns="http://www.w3.org/2000/svg" p-id="3865" xmlns:xlink="http://www.w3.org/1999/xlink" width="200" height="200"><path d="M980.48 512c0 260.15232-210.88768 471.04-471.04 471.04-260.1472 0-471.04-210.88768-471.04-471.04 0-260.1472 210.8928-471.04 471.04-471.04 260.15232 0 471.04 210.8928 471.04 471.04z m-471.04-242.44736c-133.89312 0-242.44736 108.54912-242.44736 242.44736s108.54912 242.44736 242.44736 242.44736 242.44736-108.54912 242.44736-242.44736S643.33824 269.55264 509.44 269.55264z" fill="#3D8BFF" opacity=".4" p-id="3866"></path><path d="M509.44 512m-242.44736 0a242.44736 242.44736 0 1 0 484.89472 0 242.44736 242.44736 0 1 0-484.89472 0Z" fill="#3D8BFF" p-id="3867"></path></svg>