<?xml version="1.0" standalone="no"?><!DOCTYPE svg PUBLIC "-//W3C//DTD SVG 1.1//EN" "http://www.w3.org/Graphics/SVG/1.1/DTD/svg11.dtd"><svg t="1757402852970" class="icon" viewBox="0 0 1024 1024" version="1.1" xmlns="http://www.w3.org/2000/svg" p-id="1412" xmlns:xlink="http://www.w3.org/1999/xlink" width="200" height="200"><path d="M160.45215164 405.71809253m94.41420034 0l514.44311326 0q94.41420117 0 94.41420117 94.41420034l0 268.29808292q0 94.41420117-94.41420117 94.41420118l-514.44311326 0q-94.41420117 0-94.41420034-94.41420118l0-268.29808292q0-94.41420117 94.41420034-94.41420034Z" fill="#3B91FF" p-id="1413"></path><path d="M252.22908448 165.55087027zM252.22908448 165.55087027h7.91180419V716.03664837h-7.91180419z" fill="#91CCFF" p-id="1414"></path><path d="M260.31670672 165.55087027h7.9118042V716.03664837h-7.91180419z" fill="#90CBFF" p-id="1415"></path><path d="M268.22851092 165.55087027h7.91180503V716.03664837h-7.91180502z" fill="#8FCAFF" p-id="1416"></path><path d="M276.31613318 165.55087027h7.91180502V716.03664837h-7.91180502z" fill="#8EC9FF" p-id="1417"></path><path d="M284.2279382 165.55087027h7.91180421V716.03664837h-7.91180421z" fill="#8DC9FF" p-id="1418"></path><path d="M292.31556045 165.55087027h7.91180502V716.03664837h-7.91180502z" fill="#8CC8FF" p-id="1419"></path><path d="M300.22736547 165.55087027h7.9118042V716.03664837h-7.91180419z" fill="#8BC7FF" p-id="1420"></path><path d="M308.31498774 165.55087027h7.91180419V716.03664837h-7.91180419z" fill="#8AC6FF" p-id="1421"></path><path d="M316.22679193 165.55087027h7.91180503V716.03664837h-7.91180503z" fill="#89C5FF" p-id="1422"></path><path d="M324.31441419 165.55087027h7.91180502V716.03664837h-7.91180502z" fill="#88C4FF" p-id="1423"></path><path d="M332.22621921 165.55087027h7.9118042V716.03664837h-7.9118042z" fill="#87C3FF" p-id="1424"></path><path d="M340.13802341 165.55087027h7.91180502V716.03664837h-7.91180502z" fill="#86C3FF" p-id="1425"></path><path d="M348.22564566 165.55087027h7.91180502V716.03664837h-7.91180502z" fill="#85C2FF" p-id="1426"></path><path d="M356.13745068 165.55087027h7.91180421V716.03664837h-7.91180421z" fill="#84C1FF" p-id="1427"></path><path d="M364.22507294 165.55087027h7.91180419V716.03664837h-7.9118042z" fill="#83C0FF" p-id="1428"></path><path d="M372.13687713 165.55087027h7.91180502V716.03664837h-7.91180501z" fill="#82BFFF" p-id="1429"></path><path d="M380.22450022 165.55087027h7.9118042V716.03664837h-7.9118042z" fill="#81BEFF" p-id="1430"></path><path d="M388.13630442 165.55087027h7.91180419V716.03664837h-7.91180419z" fill="#80BDFF" p-id="1431"></path><path d="M396.22392667 165.55087027h7.91180502V716.03664837h-7.91180502z" fill="#7FBDFF" p-id="1432"></path><path d="M404.13573169 165.55087027h7.9118042V716.03664837h-7.9118042z" fill="#7EBCFF" p-id="1433"></path><path d="M412.22335393 165.55087027h7.91180422V716.03664837h-7.91180421z" fill="#7DBBFF" p-id="1434"></path><path d="M420.13515814 165.55087027h7.91180502V716.03664837h-7.91180502z" fill="#7CBAFF" p-id="1435"></path><path d="M428.22278039 165.55087027h7.91180504V716.03664837h-7.91180504z" fill="#7BB9FF" p-id="1436"></path><path d="M436.13458542 165.55087027h7.9118042V716.03664837h-7.91180419z" fill="#7AB8FF" p-id="1437"></path><path d="M444.22220767 165.55087027h7.91180503V716.03664837h-7.91180503z" fill="#79B7FF" p-id="1438"></path><path d="M452.1340127 165.55087027h7.9118042V716.03664837h-7.9118042z" fill="#78B7FF" p-id="1439"></path><path d="M460.0458169 165.55087027h7.91180419V716.03664837h-7.91180419z" fill="#77B6FF" p-id="1440"></path><path d="M468.13343914 165.55087027h7.91180503V716.03664837h-7.91180503z" fill="#76B5FF" p-id="1441"></path><path d="M476.04524417 165.55087027h7.9118042V716.03664837h-7.9118042z" fill="#75B4FF" p-id="1442"></path><path d="M484.13286642 165.55087027h7.9118042V716.03664837h-7.91180419z" fill="#74B3FF" p-id="1443"></path><path d="M492.04467062 165.55087027h7.91180503V716.03664837h-7.91180503z" fill="#73B2FF" p-id="1444"></path><path d="M500.13229287 165.55087027h7.91180503V716.03664837h-7.91180501z" fill="#72B1FF" p-id="1445"></path><path d="M508.0440979 165.55087027h7.9118042V716.03664837h-7.9118042z" fill="#70B0FF" p-id="1446"></path><path d="M516.13172016 165.55087027h7.9118042V716.03664837h-7.9118042z" fill="#6FB0FF" p-id="1447"></path><path d="M524.04352435 165.55087027h7.91180503V716.03664837h-7.91180503z" fill="#6EAFFF" p-id="1448"></path><path d="M532.13114743 165.55087027h7.9118042V716.03664837h-7.9118042z" fill="#6DAEFF" p-id="1449"></path><path d="M540.04295163 165.55087027h7.9118042V716.03664837h-7.9118042z" fill="#6CADFF" p-id="1450"></path><path d="M548.13057388 165.55087027h7.91180503V716.03664837h-7.91180503z" fill="#6BACFF" p-id="1451"></path><path d="M556.04237891 165.55087027h7.91180419V716.03664837h-7.91180419z" fill="#6AABFF" p-id="1452"></path><path d="M564.13000116 165.55087027h7.91180419V716.03664837h-7.91180419z" fill="#69AAFF" p-id="1453"></path><path d="M572.04180537 165.55087027h7.91180501V716.03664837h-7.91180501z" fill="#68AAFF" p-id="1454"></path><path d="M579.95361038 165.55087027h7.9118042V716.03664837h-7.9118042z" fill="#67A9FF" p-id="1455"></path><path d="M588.04123264 165.55087027h7.9118042V716.03664837h-7.9118042z" fill="#66A8FF" p-id="1456"></path><path d="M595.95303684 165.55087027h7.91180501V716.03664837h-7.91180501z" fill="#65A7FF" p-id="1457"></path><path d="M604.04065991 165.55087027h7.9118042V716.03664837h-7.9118042z" fill="#64A6FF" p-id="1458"></path><path d="M611.95246411 165.55087027h7.9118042V716.03664837h-7.9118042z" fill="#63A5FF" p-id="1459"></path><path d="M620.04008637 165.55087027h7.91180502V716.03664837h-7.91180502z" fill="#62A4FF" p-id="1460"></path><path d="M627.95189139 165.55087027h7.91180419V716.03664837h-7.91180419z" fill="#61A4FF" p-id="1461"></path><path d="M636.03951364 165.55087027h7.91180421V716.03664837h-7.91180421z" fill="#60A3FF" p-id="1462"></path><path d="M643.95131785 165.55087027h7.91180501V716.03664837h-7.91180501z" fill="#5FA2FF" p-id="1463"></path><path d="M652.03894009 165.55087027h7.91180503V716.03664837h-7.91180503z" fill="#5EA1FF" p-id="1464"></path><path d="M659.95074511 165.55087027h7.91180421V716.03664837h-7.9118042z" fill="#5DA0FF" p-id="1465"></path><path d="M668.03836737 165.55087027h7.9118042V716.03664837h-7.9118042z" fill="#5C9FFF" p-id="1466"></path><path d="M675.95017157 165.55087027h7.91180502V716.03664837h-7.91180503z" fill="#5B9EFF" p-id="1467"></path><path d="M684.03779465 165.55087027h7.9118042V716.03664837h-7.9118042z" fill="#5A9EFF" p-id="1468"></path><path d="M691.94959885 165.55087027h7.91180419V716.03664837h-7.91180419z" fill="#599DFF" p-id="1469"></path><path d="M699.86140304 165.55087027h7.91180503V716.03664837h-7.91180503z" fill="#589CFF" p-id="1470"></path><path d="M707.94902612 165.55087027h7.91180421V716.03664837h-7.91180421z" fill="#579BFF" p-id="1471"></path><path d="M715.86083031 165.55087027h7.91180422V716.03664837h-7.9118042z" fill="#569AFF" p-id="1472"></path><path d="M723.94845258 165.55087027h7.91180501V716.03664837h-7.91180501z" fill="#5599FF" p-id="1473"></path><path d="M731.86025759 165.55087027h7.91180421V716.03664837h-7.91180421z" fill="#5498FF" p-id="1474"></path><path d="M739.94787986 165.55087027h7.91180419V716.03664837h-7.91180419z" fill="#5398FF" p-id="1475"></path><path d="M747.85968405 165.55087027h7.91180502V716.03664837h-7.91180502z" fill="#5297FF" p-id="1476"></path><path d="M755.94730713 165.55087027h7.9118042V716.03664837h-7.9118042z" fill="#5196FF" p-id="1477"></path><path d="M763.85911133 165.55087027h7.91180419V716.03664837h-7.91180419zM771.94673359 716.03664837z" fill="#5095FF" p-id="1478"></path><path d="M568.70126562 462.50726718h-198.67420265a26.37268177 26.37268177 0 0 1 0-52.74536352h198.67420265a26.37268177 26.37268177 0 0 1 1e-8 52.74536352zM568.70126562 580.65688178h-198.67420265a26.37268177 26.37268177 0 0 1 0-52.74536352h198.67420265a26.37268177 26.37268177 0 0 1 1e-8 52.74536352zM389.01539385 367.91724878a26.02104565 26.02104565 0 0 1-17.58178811-7.73598697 25.49359231 25.49359231 0 0 1-7.9118042-18.63669562 50.10809519 50.10809519 0 0 1 0-5.0987178 28.30667872 28.30667872 0 0 1 1.58236084-5.09871863 21.62559924 21.62559924 0 0 1 2.46145029-4.39544724 14.41706644 14.41706644 0 0 1 3.34053974-3.86799307 26.72431787 26.72431787 0 0 1 37.09757235 0 14.41706644 14.41706644 0 0 1 3.34053974 3.86799307 21.62559924 21.62559924 0 0 1 2.46145029 4.39544724 28.30667872 28.30667872 0 0 1 1.58236084 5.09871863 25.14195703 25.14195703 0 0 1 0 5.0987178 26.72431787 26.72431787 0 0 1-26.37268177 26.37268259z" fill="#FFFFFF" p-id="1479"></path><path d="M160.45215164 713.04774391l74.72259805 151.90664723H160.45215164v-151.90664721zM160.45215164 688.43324106l86.85403226 176.52115008h-12.13143421L160.45215164 713.04774391v-24.61450285z" fill="#91CCFF" p-id="1480"></path><path d="M160.45215164 663.99455625l98.80964758 200.95983489h-11.95561532L160.45215164 688.43324106v-24.43868483z" fill="#90CBFF" p-id="1481"></path><path d="M160.45215164 639.38005337l110.94108096 225.57433777h-12.13143338L160.45215164 663.99455625v-24.61450288z" fill="#8FCAFF" p-id="1482"></path><path d="M160.45215164 614.94136773l122.89669711 250.01302341h-11.95561615L160.45215164 639.38005337v-24.43868563z" fill="#8EC9FF" p-id="1483"></path><path d="M160.45215164 590.32686487l135.02813049 274.62752627h-12.13143338L160.45215164 614.94136773v-24.61450286z" fill="#8DC9FF" p-id="1484"></path><path d="M160.45215164 565.88818005l147.1595647 299.06621109h-12.13143421L160.45215164 590.32686487v-24.43868482z" fill="#8CC8FF" p-id="1485"></path><path d="M170.12213473 560.96527948l149.44519694 303.98911166h-11.95561533L160.45215164 565.88818005v-4.92290057h9.66998309z" fill="#8BC7FF" p-id="1486"></path><path d="M182.25356812 560.96527948l149.44519693 303.98911166h-12.13143338l-149.44519694-303.98911166h12.13143339z" fill="#8AC6FF" p-id="1487"></path><path d="M194.20918427 560.96527948l149.44519692 303.98911166h-11.95561616l-149.44519691-303.98911166h11.95561615z" fill="#89C5FF" p-id="1488"></path><path d="M206.34061765 560.96527948l149.44519693 303.98911166h-12.13143339l-149.44519693-303.98911166h12.13143339z" fill="#88C4FF" p-id="1489"></path><path d="M218.29623379 560.96527948l149.44519694 303.98911166h-11.95561615l-149.44519693-303.98911166h11.95561614z" fill="#87C3FF" p-id="1490"></path><path d="M230.42766718 560.96527948l149.44519693 303.98911166h-12.13143339l-149.44519693-303.98911166h12.13143338z" fill="#86C3FF" p-id="1491"></path><path d="M242.38328333 560.96527948l149.44519692 303.98911166h-11.95561614l-149.44519693-303.98911166h11.95561615z" fill="#85C2FF" p-id="1492"></path><path d="M254.5147167 560.96527948l149.44519694 303.98911166h-12.13143339l-149.44519692-303.98911166h12.13143337z" fill="#84C1FF" p-id="1493"></path><path d="M266.64615009 560.96527948l149.44519693 303.98911166h-12.13143339l-149.44519693-303.98911166h12.13143339z" fill="#83C0FF" p-id="1494"></path><path d="M278.60176623 560.96527948l149.44519693 303.98911166h-11.95561614l-149.44519693-303.98911166h11.95561614z" fill="#82BFFF" p-id="1495"></path><path d="M290.73319962 560.96527948l149.44519692 303.98911166h-12.13143338l-149.44519693-303.98911166h12.13143339z" fill="#81BEFF" p-id="1496"></path><path d="M302.68881577 560.96527948l149.44519693 303.98911166h-11.95561616l-149.44519692-303.98911166h11.95561615z" fill="#80BDFF" p-id="1497"></path><path d="M314.82024914 560.96527948l149.44519694 303.98911166h-12.13143338l-149.44519693-303.98911166h12.13143337z" fill="#7FBDFF" p-id="1498"></path><path d="M326.77586447 560.96527948l149.44519693 303.98911166h-11.95561533l-149.44519693-303.98911166h11.95561533z" fill="#7EBCFF" p-id="1499"></path><path d="M338.90729868 560.96527948l149.44519691 303.98911166h-12.13143419l-149.44519693-303.98911166h12.13143421z" fill="#7DBBFF" p-id="1500"></path><path d="M351.03873206 560.96527948l149.44519693 303.98911166h-12.13143338l-149.44519693-303.98911166h12.13143338z" fill="#7CBAFF" p-id="1501"></path><path d="M362.99434738 560.96527948l149.44519694 303.98911166h-11.95561533l-149.44519693-303.98911166h11.95561532z" fill="#7BB9FF" p-id="1502"></path><path d="M375.12578158 560.96527948l149.44519694 303.98911166h-12.1314342l-149.44519694-303.98911166h12.1314342z" fill="#7AB8FF" p-id="1503"></path><path d="M387.08139691 560.96527948l149.44519694 303.98911166h-11.95561533l-149.44519694-303.98911166h11.95561532z" fill="#79B7FF" p-id="1504"></path><path d="M399.21283111 560.96527948l149.44519693 303.98911166h-12.13143421l-149.44519693-303.98911166h12.13143423z" fill="#78B7FF" p-id="1505"></path><path d="M411.16844644 560.96527948l149.62101499 303.98911166h-12.13143339l-149.44519693-303.98911166h11.95561533z" fill="#77B6FF" p-id="1506"></path><path d="M423.29987983 560.96527948l149.44519693 303.98911166h-11.95561533l-149.62101499-303.98911166h12.13143338z" fill="#76B5FF" p-id="1507"></path><path d="M435.43131403 560.96527948l149.44519694 303.98911166h-12.13143421l-149.44519694-303.98911166h12.13143421z" fill="#75B4FF" p-id="1508"></path><path d="M447.38692935 560.96527948l149.44519693 303.98911166h-11.95561533l-149.44519693-303.98911166h11.95561533z" fill="#74B3FF" p-id="1509"></path><path d="M459.51836355 560.96527948l149.44519694 303.98911166h-12.13143421l-149.44519693-303.98911166h12.1314342z" fill="#73B2FF" p-id="1510"></path><path d="M471.47397888 560.96527948l149.44519693 303.98911166h-11.95561532l-149.44519694-303.98911166h11.95561533z" fill="#72B1FF" p-id="1511"></path><path d="M483.60541226 560.96527948l149.44519693 303.98911166h-12.13143338l-149.44519693-303.98911166h12.13143338z" fill="#70B0FF" p-id="1512"></path><path d="M495.56102841 560.96527948l149.62101499 303.98911166h-12.13143421l-149.44519693-303.98911166h11.95561616z" fill="#6FB0FF" p-id="1513"></path><path d="M507.69246179 560.96527948l149.44519693 303.98911166h-11.95561532l-149.62101499-303.98911166h12.13143338z" fill="#6EAFFF" p-id="1514"></path><path d="M519.64807794 560.96527948l149.62101499 303.98911166h-12.13143421l-149.44519693-303.98911166h11.95561616z" fill="#6DAEFF" p-id="1515"></path><path d="M531.77951132 560.96527948l149.44519693 303.98911166h-11.95561533l-149.62101498-303.98911166h12.13143338z" fill="#6CADFF" p-id="1516"></path><path d="M543.91094471 560.96527948l149.44519692 303.98911166h-12.13143338l-149.44519693-303.98911166h12.13143339z" fill="#6BACFF" p-id="1517"></path><path d="M555.86656086 560.96527948l149.44519692 303.98911166h-11.95561615l-149.44519692-303.98911166h11.95561615z" fill="#6AABFF" p-id="1518"></path><path d="M567.99799423 560.96527948l149.44519694 303.98911166h-12.13143339l-149.44519693-303.98911166h12.13143338z" fill="#69AAFF" p-id="1519"></path><path d="M579.95361038 560.96527948l149.62101416 303.98911166h-12.13143337l-149.44519694-303.98911166h11.95561615z" fill="#68AAFF" p-id="1520"></path><path d="M592.08504375 560.96527948l149.44519694 303.98911166h-11.95561615l-149.62101416-303.98911166h12.13143337z" fill="#67A9FF" p-id="1521"></path><path d="M604.04065991 560.96527948l149.62101416 303.98911166h-12.13143338l-149.44519694-303.98911166h11.95561618z" fill="#66A8FF" p-id="1522"></path><path d="M616.17209329 560.96527948l149.44519693 303.98911166h-11.95561615l-149.62101414-303.98911166h12.13143336z" fill="#65A7FF" p-id="1523"></path><path d="M628.30352667 560.96527948l149.44519694 303.98911166h-12.13143339l-149.44519693-303.98911166h12.13143339z" fill="#64A6FF" p-id="1524"></path><path d="M640.25914282 560.96527948l149.44519693 303.98911166h-11.95561614l-149.44519694-303.98911166h11.95561615z" fill="#63A5FF" p-id="1525"></path><path d="M652.3905762 560.96527948l149.44519693 303.98911166h-12.13143338l-149.44519693-303.98911166h12.13143338z" fill="#62A4FF" p-id="1526"></path><path d="M664.34619153 560.96527948l149.44519692 303.98911166h-11.95561532l-149.44519693-303.98911166h11.95561533z" fill="#61A4FF" p-id="1527"></path><path d="M676.47762573 560.96527948l149.44519693 303.98911166h-12.13143421l-149.44519692-303.98911166h12.1314342z" fill="#60A3FF" p-id="1528"></path><path d="M688.43324106 560.96527948l149.62101499 303.98911166h-12.13143339l-149.44519693-303.98911166h11.95561533z" fill="#5FA2FF" p-id="1529"></path><path d="M700.56467527 560.96527948l149.44519692 303.98911166h-11.95561615l-149.62101498-303.98911166h12.13143421z" fill="#5EA1FF" p-id="1530"></path><path d="M712.69610864 560.96527948l149.44519693 303.98911166h-12.13143338l-149.44519692-303.98911166h12.13143337z" fill="#5DA0FF" p-id="1531"></path><path d="M724.65172397 560.96527948L863.72366641 843.85624606v21.09814508h-1.58236084l-149.44519693-303.98911166h11.95561533z" fill="#5C9FFF" p-id="1532"></path><path d="M736.78315817 560.96527948L863.72366641 819.24174319v24.61450287l-139.07194244-282.89096658h12.1314342z" fill="#5B9EFF" p-id="1533"></path><path d="M748.7387735 560.96527948L863.72366641 794.80305755v24.43868564l-126.94050824-258.27646371h11.95561532z" fill="#5A9EFF" p-id="1534"></path><path d="M760.8702077 560.96527948L863.72366641 770.18855469v24.61450287l-114.98489292-233.83777808h12.13143421z" fill="#599DFF" p-id="1535"></path><path d="M773.00164108 560.96527948L863.72366641 745.74986987v24.43868482l-102.85345871-209.22327522h12.13143338z" fill="#589CFF" p-id="1536"></path><path d="M784.95725641 560.96527948L863.72366641 721.13536701v24.61450286l-90.72202533-184.78459039h11.95561533z" fill="#579BFF" p-id="1537"></path><path d="M797.08869061 560.96527948L863.72366641 696.69668137v24.43868563l-78.76641-160.17008752h12.1314342z" fill="#569AFF" p-id="1538"></path><path d="M809.04430594 560.96527948L863.72366641 672.0821785v24.61450287l-66.6349758-135.7314019h11.95561533z" fill="#5599FF" p-id="1539"></path><path d="M821.17574014 560.96527948L863.72366641 647.64349367v24.43868483l-54.67936047-111.11689902h12.1314342z" fill="#5498FF" p-id="1540"></path><path d="M833.13135547 560.96527948L863.72366641 623.02899082v24.61450287l-42.54792627-86.67821421h11.95561533z" fill="#5398FF" p-id="1541"></path><path d="M845.26278884 560.96527948L863.72366641 598.59030518v24.43868564l-30.59231094-62.06371135h12.13143337z" fill="#5297FF" p-id="1542"></path><path d="M857.218405 560.96527948l6.50526141 13.01052283v24.61450287l-18.46087757-37.6250257h11.95561616z" fill="#5196FF" p-id="1543"></path><path d="M863.72366641 573.97580233l-6.50526141-13.01052285H863.72366641v13.01052283z" fill="#5095FF" p-id="1544"></path></svg>
