<?xml version="1.0" standalone="no"?><!DOCTYPE svg PUBLIC "-//W3C//DTD SVG 1.1//EN" "http://www.w3.org/Graphics/SVG/1.1/DTD/svg11.dtd"><svg t="1744854394926" class="icon" viewBox="0 0 1024 1024" version="1.1" xmlns="http://www.w3.org/2000/svg" p-id="5741" xmlns:xlink="http://www.w3.org/1999/xlink" width="256" height="256"><path d="M1024 512c0 282.784-229.216 512-512 512S0 794.784 0 512 229.216 0 512 0s512 229.216 512 512z" fill="#F8BC4D" p-id="5742"></path><path d="M598.56 581.504v137.728a32 32 0 0 1-32 32h-105.728a32 32 0 0 1-32-32v-137.728H314.784a28.48 28.48 0 0 1-22.688-45.728l198.752-261.536a28.48 28.48 0 0 1 45.472 0.16l195.68 261.536a28.48 28.48 0 0 1-22.816 45.536h-110.624z" fill="#FFFFFF" p-id="5743"></path></svg>