<?xml version="1.0" standalone="no"?><!DOCTYPE svg PUBLIC "-//W3C//DTD SVG 1.1//EN" "http://www.w3.org/Graphics/SVG/1.1/DTD/svg11.dtd"><svg t="1758174051564" class="icon" viewBox="0 0 1024 1024" version="1.1" xmlns="http://www.w3.org/2000/svg" p-id="2422" xmlns:xlink="http://www.w3.org/1999/xlink" width="200" height="200"><path d="M608.4050293 141.21142578a29.66308594 29.66308594 0 0 1 29.66308593 29.66308594v285.50720215h189.10217286a29.66308594 29.66308594 0 0 1 29.66308593 29.66308593v367.08068848a29.66308594 29.66308594 0 0 1-29.66308594 29.66308594H415.5949707a29.66308594 29.66308594 0 0 1-29.66308593-29.66308594v-285.50720215H196.82971191a29.66308594 29.66308594 0 0 1-29.66308593-29.66308593V170.87451172a29.66308594 29.66308594 0 0 1 29.66308594-29.66308594h411.57531738z m189.10217285 359.664917h-159.43908692v37.07885741a29.66308594 29.66308594 0 0 1-29.66308593 29.66308594h-5.38755799c0.95292664 0.83798218 1.87989807 1.70562744 2.78091431 2.60664368 5.3059845 5.3059845 9.54039002 11.56118774 12.69950867 18.76190186A56.47109985 56.47109985 0 0 1 623.23657227 611.92752075a56.47109985 56.47109985 0 0 1-4.73867798 22.93327332 63.16754151 63.16754151 0 0 1-12.69950867 18.95471191c-5.3059845 5.43205261-11.56118774 9.72949219-18.76190185 12.88861084A56.47109985 56.47109985 0 0 1 564.09579468 671.43908692c-8.34274292 0-16.11076355-1.57955932-23.31147767-4.73867799-7.204422-3.15911865-13.45962524-7.45285034-18.76560974-12.88861083a63.16754151 63.16754151 0 0 1-12.69950866-18.95471192A56.47109985 56.47109985 0 0 1 504.58422852 611.92752075c0-8.0868988 1.57955932-15.7325592 4.73867797-22.93327331 3.15911865-7.204422 7.39352417-13.45962524 12.69950867-18.76560974 0.90101623-0.90101623 1.82798767-1.7686615 2.78091431-2.60664368l-89.99038697 0.00741577c1.5091095 124.10293579 3.8487854 184.27079773 7.01902771 180.51470948a166.29125977 166.29125977 0 0 1 17.37886047-17.81268312c6.04385376-5.30227661 12.28051758-9.66275024 18.70257569-13.07400512 6.4220581-3.41125489 20.32662964-5.11688232 26.87475586-5.11688233 7.80880737 0 7.13026428 0.5710144 12.7959137 1.70562745 5.6693573 1.13832092 10.70837402 2.59181213 15.11334228 4.36047363a100.7210083 100.7210083 0 0 1 12.28051758 5.87329102 100.7210083 100.7210083 0 0 0 12.28051758 5.87329102c4.40867615 1.7686615 16.79672242 3.22215271 22.3400116 4.35676574 5.5395813 1.13832092 12.21377563 1.70562744 20.022583 1.70562744 7.80880737 0 11.09399414-21.7652893 35.89233399-24.63148498 24.80204773-2.86248779 35.68469238 20.92730713 41.72854614 13.85266113 6.04385376-7.07093811 13.22602844-35.19154357 21.53910828-39.8671875 8.30937195-4.67193604 18.38740539-7.00790406 30.22297669-7.00790406 10.07803344 0 19.77415466 3.09237671 29.09577941 9.28083802 9.31791687 6.19216919 17.946167 14.21232605 25.88104249 24.06417846 7.93487549 9.85185242 15.2394104 20.83831787 21.91360472 32.96681214 3.28147888 5.96598816 3.67451477-0.68966675 3.82653809-7.60858154l0.02966309-1.38304139c0.12606812-6.67419434 0.19281006-12.8218689 2.58810425-7.29711914V515.70788575a14.83154297 14.83154297 0 0 0-14.83154297-14.83154298z m-218.76525879-315.17028809H230.20068359a14.83154297 14.83154297 0 0 0-14.83154296 14.83154297v278.09143066a257.18637085 257.18637085 0 0 1 15.11334228-19.70370483 166.29125977 166.29125977 0 0 1 17.37886047-17.81268311c6.04385376-5.30227661 12.28051758-9.66275024 18.70257569-13.07400512 6.4220581-3.41125489 12.91085815-5.11688232 19.45898437-5.11688234 7.80880737 0 14.54603576 0.5710144 20.21168518 1.70562745 5.6693573 1.13832092 10.70837402 2.59181213 15.11334229 4.36047364a100.7210083 100.7210083 0 0 1 12.28051758 5.87329101 100.7210083 100.7210083 0 0 0 12.28051758 5.87329102c4.40867615 1.7686615 9.38095093 3.22215271 14.92424011 4.35676574 5.5395813 1.13832092 12.21377563 1.70562744 20.02258301 1.70562744 7.80880737 0 14.54603576-2.33596802 20.21539306-7.00790405 5.66564941-4.67193604 10.89376831-10.54893494 15.6806488-17.62358093a446.57775879 446.57775879 0 0 0 14.35693359-22.73675538 161.7565155 161.7565155 0 0 1 16.24424744-22.73675537 78.99279785 78.99279785 0 0 1 21.53910828-17.61987304c8.30937195-4.67193604 18.38740539-7.00790406 30.22297669-7.00790405 10.07803344 0 19.77415466 3.09237671 29.09577941 9.28083801 9.31791687 6.19216919 17.946167 14.21232605 25.88104248 24.06417846 7.93487549 9.85185242 15.2394104 20.83831787 21.91360474 32.96681214 6.67419434 12.12478638 12.53265381 24.00114441 17.56796265 35.62165832V200.53759766a14.83154297 14.83154297 0 0 0-14.83154297-14.83154297zM345.33424378 237.61645508c8.0868988 0 15.7325592 1.57955932 22.93327331 4.73867797 7.204422 3.15911865 13.45962524 7.39352417 18.76560974 12.69950867 5.3059845 5.3059845 9.54039002 11.56118774 12.69950867 18.76190186A56.47109985 56.47109985 0 0 1 404.47131347 296.75723266a56.47109985 56.47109985 0 0 1-4.73867797 22.93327332 63.16754151 63.16754151 0 0 1-12.69950867 18.95471191c-5.3059845 5.43205261-11.56118774 9.72949219-18.76190186 12.88861084A56.47109985 56.47109985 0 0 1 345.33053589 356.26879883c-8.34274292 0-16.11076355-1.57955932-23.31147766-4.73867798-7.204422-3.15911865-13.45962524-7.45285034-18.76560974-12.88861084a63.16754151 63.16754151 0 0 1-12.69950867-18.95471191A56.47109985 56.47109985 0 0 1 285.81896972 296.75723266c0-8.0868988 1.57955932-15.7325592 4.73867799-22.93327331 3.15911865-7.204422 7.39352417-13.45962524 12.69950866-18.76560974 5.3059845-5.3059845 11.56118774-9.54039002 18.76190186-12.69950867C329.22718811 239.1960144 336.99891662 237.61645508 345.33795166 237.61645508z" fill="#13227a" p-id="2423"></path></svg>
