<?xml version="1.0" standalone="no"?><!DOCTYPE svg PUBLIC "-//W3C//DTD SVG 1.1//EN" "http://www.w3.org/Graphics/SVG/1.1/DTD/svg11.dtd"><svg t="1757426330585" class="icon" viewBox="0 0 1024 1024" version="1.1" xmlns="http://www.w3.org/2000/svg" p-id="1512" xmlns:xlink="http://www.w3.org/1999/xlink" width="200" height="200"><path d="M719.64160156 343.90917969c-54.38232422 0-103.82080078-49.43847656-103.82080078-103.82080078V116.4921875H249.97607422C220.31298828 116.4921875 190.64990234 146.15527344 190.64990234 180.76220703v662.47558594c0 34.60693359 29.66308594 64.27001953 59.32617188 64.27001953h519.10400391c34.60693359 0 59.32617188-29.66308594 59.32617187-64.27001953V343.90917969h-108.76464844z m9.88769532 420.22705078H294.47070312v-44.49462891H734.47314453v44.49462891z m0-133.48388672H294.47070312v-44.49462891H734.47314453v44.49462891z m0-138.42773438H294.47070312v-44.4946289H734.47314453v44.49462891z" fill="#649EDD" p-id="1513"></path><path d="M635.59619141 116.4921875v128.54003906c0 39.55078125 29.66308594 69.21386719 69.21386718 69.21386719H833.35009766L635.59619141 116.4921875z" fill="#649EDD" p-id="1514"></path></svg>
